<mxfile host="app.diagrams.net" modified="2023-05-06T18:52:57.136Z" agent="Mozilla/5.0 (Windows NT 10.0; Win64; x64) AppleWebKit/537.36 (KHTML, like Gecko) Chrome/112.0.0.0 Safari/537.36" etag="SdvRxuHoazR1uwieI5Oo" version="21.2.7" type="device">
  <diagram id="UdxZ_-akryXsySf2juUY" name="WhiteDiagram">
    <mxGraphModel dx="1134" dy="626" grid="1" gridSize="10" guides="1" tooltips="1" connect="1" arrows="1" fold="1" page="1" pageScale="1" pageWidth="850" pageHeight="1100" math="0" shadow="0">
      <root>
        <mxCell id="0" />
        <mxCell id="1" parent="0" />
        <mxCell id="dIHybOWJR_WHU6xol9Fc-5" value="" style="rounded=0;whiteSpace=wrap;html=1;" parent="1" vertex="1">
          <mxGeometry x="1350" y="616" width="600" height="444" as="geometry" />
        </mxCell>
        <mxCell id="CLvzxZcf5yE5PqEASKck-112" value="" style="rounded=0;whiteSpace=wrap;html=1;" parent="1" vertex="1">
          <mxGeometry x="100" y="210" width="1250" height="850" as="geometry" />
        </mxCell>
        <mxCell id="CLvzxZcf5yE5PqEASKck-2" value="&lt;b&gt;Store&lt;/b&gt;" style="shape=umlFrame;whiteSpace=wrap;html=1;pointerEvents=0;width=80;height=20;" parent="1" vertex="1">
          <mxGeometry x="800" y="688" width="520" height="360" as="geometry" />
        </mxCell>
        <mxCell id="CLvzxZcf5yE5PqEASKck-4" value="&lt;b&gt;Transaction&lt;/b&gt;" style="shape=umlFrame;whiteSpace=wrap;html=1;pointerEvents=0;width=80;height=20;" parent="1" vertex="1">
          <mxGeometry x="410" y="688" width="370" height="362" as="geometry" />
        </mxCell>
        <mxCell id="CLvzxZcf5yE5PqEASKck-3" value="&lt;b&gt;Shopping Cart&lt;/b&gt;" style="shape=umlFrame;whiteSpace=wrap;html=1;pointerEvents=0;width=95;height=18;" parent="1" vertex="1">
          <mxGeometry x="100" y="448" width="290" height="600" as="geometry" />
        </mxCell>
        <mxCell id="CLvzxZcf5yE5PqEASKck-5" value="Transaction" style="swimlane;fontStyle=1;align=center;verticalAlign=middle;childLayout=stackLayout;horizontal=1;startSize=29;horizontalStack=0;resizeParent=1;resizeParentMax=0;resizeLast=0;collapsible=0;marginBottom=0;html=1;fillColor=#ffe6cc;strokeColor=#d79b00;" parent="1" vertex="1">
          <mxGeometry x="494" y="748" width="106.5" height="55" as="geometry" />
        </mxCell>
        <mxCell id="CLvzxZcf5yE5PqEASKck-6" value="Store" style="swimlane;fontStyle=1;align=center;verticalAlign=middle;childLayout=stackLayout;horizontal=1;startSize=29;horizontalStack=0;resizeParent=1;resizeParentMax=0;resizeLast=0;collapsible=0;marginBottom=0;html=1;fillColor=#ffe6cc;strokeColor=#d79b00;" parent="1" vertex="1">
          <mxGeometry x="1005" y="718" width="160" height="55" as="geometry" />
        </mxCell>
        <mxCell id="CLvzxZcf5yE5PqEASKck-7" style="edgeStyle=orthogonalEdgeStyle;rounded=0;orthogonalLoop=1;jettySize=auto;html=1;endArrow=none;endFill=0;startArrow=diamondThin;startFill=1;" parent="1" source="CLvzxZcf5yE5PqEASKck-6" target="CLvzxZcf5yE5PqEASKck-54" edge="1">
          <mxGeometry relative="1" as="geometry">
            <Array as="points">
              <mxPoint x="1090" y="678" />
              <mxPoint x="1090" y="678" />
            </Array>
          </mxGeometry>
        </mxCell>
        <mxCell id="CLvzxZcf5yE5PqEASKck-8" value="1...1" style="edgeLabel;html=1;align=center;verticalAlign=middle;resizable=0;points=[];" parent="CLvzxZcf5yE5PqEASKck-7" connectable="0" vertex="1">
          <mxGeometry x="-0.6989" relative="1" as="geometry">
            <mxPoint x="12" y="-4" as="offset" />
          </mxGeometry>
        </mxCell>
        <mxCell id="CLvzxZcf5yE5PqEASKck-9" value="&lt;div style=&quot;&quot;&gt;Store owners: 0 .. n&lt;/div&gt;Store managers: 0 .. n&lt;br&gt;Store founders: 1 .. 1" style="edgeLabel;html=1;align=left;verticalAlign=middle;resizable=0;points=[];fontSize=9;" parent="CLvzxZcf5yE5PqEASKck-7" vertex="1" connectable="0">
          <mxGeometry x="0.7843" relative="1" as="geometry">
            <mxPoint y="14" as="offset" />
          </mxGeometry>
        </mxCell>
        <mxCell id="CLvzxZcf5yE5PqEASKck-10" value="Product" style="swimlane;fontStyle=1;align=center;verticalAlign=middle;childLayout=stackLayout;horizontal=1;startSize=29;horizontalStack=0;resizeParent=1;resizeParentMax=0;resizeLast=0;collapsible=0;marginBottom=0;html=1;fillColor=#ffe6cc;strokeColor=#d79b00;" parent="1" vertex="1">
          <mxGeometry x="830" y="718" width="100" height="60" as="geometry" />
        </mxCell>
        <mxCell id="CLvzxZcf5yE5PqEASKck-11" style="edgeStyle=orthogonalEdgeStyle;rounded=0;orthogonalLoop=1;jettySize=auto;html=1;endArrow=none;endFill=0;startArrow=diamondThin;startFill=1;" parent="1" source="CLvzxZcf5yE5PqEASKck-6" target="CLvzxZcf5yE5PqEASKck-10" edge="1">
          <mxGeometry relative="1" as="geometry">
            <Array as="points">
              <mxPoint x="970" y="748" />
              <mxPoint x="970" y="748" />
            </Array>
          </mxGeometry>
        </mxCell>
        <mxCell id="CLvzxZcf5yE5PqEASKck-12" value="0...n" style="edgeLabel;html=1;align=center;verticalAlign=middle;resizable=0;points=[];" parent="CLvzxZcf5yE5PqEASKck-11" vertex="1" connectable="0">
          <mxGeometry x="0.8151" relative="1" as="geometry">
            <mxPoint x="8" y="9" as="offset" />
          </mxGeometry>
        </mxCell>
        <mxCell id="CLvzxZcf5yE5PqEASKck-104" value="1" style="edgeLabel;html=1;align=center;verticalAlign=middle;resizable=0;points=[];" parent="CLvzxZcf5yE5PqEASKck-11" vertex="1" connectable="0">
          <mxGeometry x="-0.7867" relative="1" as="geometry">
            <mxPoint y="12" as="offset" />
          </mxGeometry>
        </mxCell>
        <mxCell id="CLvzxZcf5yE5PqEASKck-13" value="DiscountRule" style="swimlane;fontStyle=1;align=center;verticalAlign=middle;childLayout=stackLayout;horizontal=1;startSize=29;horizontalStack=0;resizeParent=1;resizeParentMax=0;resizeLast=0;collapsible=0;marginBottom=0;html=1;fillColor=#ffe6cc;strokeColor=#d79b00;" parent="1" vertex="1">
          <mxGeometry x="1209.9999999999998" y="718" width="100" height="55" as="geometry" />
        </mxCell>
        <mxCell id="CLvzxZcf5yE5PqEASKck-14" style="edgeStyle=orthogonalEdgeStyle;rounded=0;orthogonalLoop=1;jettySize=auto;html=1;endArrow=none;endFill=0;startArrow=diamondThin;startFill=1;" parent="1" source="CLvzxZcf5yE5PqEASKck-6" target="CLvzxZcf5yE5PqEASKck-13" edge="1">
          <mxGeometry relative="1" as="geometry" />
        </mxCell>
        <mxCell id="CLvzxZcf5yE5PqEASKck-15" value="1...n" style="edgeLabel;html=1;align=center;verticalAlign=middle;resizable=0;points=[];" parent="CLvzxZcf5yE5PqEASKck-14" vertex="1" connectable="0">
          <mxGeometry x="-0.7959" y="1" relative="1" as="geometry">
            <mxPoint x="26" y="-9" as="offset" />
          </mxGeometry>
        </mxCell>
        <mxCell id="CLvzxZcf5yE5PqEASKck-16" value="&lt;b&gt;Member&lt;/b&gt;" style="shape=umlFrame;whiteSpace=wrap;html=1;pointerEvents=0;width=80;height=20;" parent="1" vertex="1">
          <mxGeometry x="100" y="250" width="1220" height="178" as="geometry" />
        </mxCell>
        <mxCell id="CLvzxZcf5yE5PqEASKck-17" value="" style="edgeStyle=orthogonalEdgeStyle;rounded=0;orthogonalLoop=1;jettySize=auto;html=1;endArrow=none;endFill=0;startArrow=diamondThin;startFill=1;dashed=1;" parent="1" source="CLvzxZcf5yE5PqEASKck-69" target="CLvzxZcf5yE5PqEASKck-5" edge="1">
          <mxGeometry relative="1" as="geometry">
            <Array as="points">
              <mxPoint x="400" y="400" />
              <mxPoint x="400" y="778" />
            </Array>
            <mxPoint x="315" y="568" as="sourcePoint" />
            <mxPoint x="210" y="1033" as="targetPoint" />
          </mxGeometry>
        </mxCell>
        <mxCell id="CLvzxZcf5yE5PqEASKck-18" value="0...n" style="edgeLabel;html=1;align=center;verticalAlign=middle;resizable=0;points=[];" parent="CLvzxZcf5yE5PqEASKck-17" connectable="0" vertex="1">
          <mxGeometry x="0.9258" relative="1" as="geometry">
            <mxPoint x="6" y="-10" as="offset" />
          </mxGeometry>
        </mxCell>
        <mxCell id="CLvzxZcf5yE5PqEASKck-19" value="ShoppingBasket" style="swimlane;fontStyle=1;align=center;verticalAlign=middle;childLayout=stackLayout;horizontal=1;startSize=29;horizontalStack=0;resizeParent=1;resizeParentMax=0;resizeLast=0;collapsible=0;marginBottom=0;html=1;fillColor=#ffe6cc;strokeColor=#d79b00;" parent="1" vertex="1">
          <mxGeometry x="150" y="652" width="210" height="55" as="geometry" />
        </mxCell>
        <mxCell id="CLvzxZcf5yE5PqEASKck-20" style="edgeStyle=orthogonalEdgeStyle;rounded=0;orthogonalLoop=1;jettySize=auto;html=1;startArrow=diamondThin;startFill=1;endArrow=none;endFill=0;" parent="1" source="CLvzxZcf5yE5PqEASKck-76" target="CLvzxZcf5yE5PqEASKck-19" edge="1">
          <mxGeometry relative="1" as="geometry">
            <Array as="points">
              <mxPoint x="290" y="620" />
              <mxPoint x="290" y="620" />
            </Array>
          </mxGeometry>
        </mxCell>
        <mxCell id="CLvzxZcf5yE5PqEASKck-21" value="0 .. n" style="edgeLabel;html=1;align=center;verticalAlign=middle;resizable=0;points=[];" parent="CLvzxZcf5yE5PqEASKck-20" vertex="1" connectable="0">
          <mxGeometry x="0.9327" y="1" relative="1" as="geometry">
            <mxPoint x="14" y="-6" as="offset" />
          </mxGeometry>
        </mxCell>
        <mxCell id="CLvzxZcf5yE5PqEASKck-101" value="1" style="edgeLabel;html=1;align=center;verticalAlign=middle;resizable=0;points=[];" parent="CLvzxZcf5yE5PqEASKck-20" vertex="1" connectable="0">
          <mxGeometry x="-0.8137" y="-2" relative="1" as="geometry">
            <mxPoint x="12" as="offset" />
          </mxGeometry>
        </mxCell>
        <mxCell id="CLvzxZcf5yE5PqEASKck-22" value="ShoppingItem" style="swimlane;fontStyle=1;align=center;verticalAlign=middle;childLayout=stackLayout;horizontal=1;startSize=29;horizontalStack=0;resizeParent=1;resizeParentMax=0;resizeLast=0;collapsible=0;marginBottom=0;html=1;fillColor=#ffe6cc;strokeColor=#d79b00;" parent="1" vertex="1">
          <mxGeometry x="230" y="872" width="100" height="53" as="geometry" />
        </mxCell>
        <mxCell id="CLvzxZcf5yE5PqEASKck-23" style="edgeStyle=orthogonalEdgeStyle;rounded=0;orthogonalLoop=1;jettySize=auto;html=1;endArrow=none;endFill=0;startArrow=diamondThin;startFill=0;dashed=1;exitX=0.5;exitY=1;exitDx=0;exitDy=0;" parent="1" source="CLvzxZcf5yE5PqEASKck-22" target="CLvzxZcf5yE5PqEASKck-10" edge="1">
          <mxGeometry relative="1" as="geometry">
            <mxPoint x="280" y="898" as="sourcePoint" />
            <Array as="points">
              <mxPoint x="280" y="968" />
              <mxPoint x="787" y="968" />
              <mxPoint x="787" y="748" />
            </Array>
          </mxGeometry>
        </mxCell>
        <mxCell id="CLvzxZcf5yE5PqEASKck-24" value="1...1" style="edgeLabel;html=1;align=center;verticalAlign=middle;resizable=0;points=[];" parent="CLvzxZcf5yE5PqEASKck-23" vertex="1" connectable="0">
          <mxGeometry x="-0.9459" y="-1" relative="1" as="geometry">
            <mxPoint x="531" y="-187" as="offset" />
          </mxGeometry>
        </mxCell>
        <mxCell id="CLvzxZcf5yE5PqEASKck-25" style="edgeStyle=orthogonalEdgeStyle;rounded=0;orthogonalLoop=1;jettySize=auto;html=1;endArrow=none;endFill=0;startArrow=diamondThin;startFill=0;" parent="1" source="CLvzxZcf5yE5PqEASKck-19" target="CLvzxZcf5yE5PqEASKck-22" edge="1">
          <mxGeometry relative="1" as="geometry">
            <Array as="points">
              <mxPoint x="280" y="858" />
              <mxPoint x="280" y="858" />
            </Array>
            <mxPoint x="700.0344827586207" y="845" as="targetPoint" />
          </mxGeometry>
        </mxCell>
        <mxCell id="CLvzxZcf5yE5PqEASKck-26" value="0...n" style="edgeLabel;html=1;align=center;verticalAlign=middle;resizable=0;points=[];" parent="CLvzxZcf5yE5PqEASKck-25" connectable="0" vertex="1">
          <mxGeometry x="0.6727" y="-1" relative="1" as="geometry">
            <mxPoint x="14" y="15" as="offset" />
          </mxGeometry>
        </mxCell>
        <mxCell id="CLvzxZcf5yE5PqEASKck-27" value="TransactionItem" style="swimlane;fontStyle=1;align=center;verticalAlign=middle;childLayout=stackLayout;horizontal=1;startSize=29;horizontalStack=0;resizeParent=1;resizeParentMax=0;resizeLast=0;collapsible=0;marginBottom=0;html=1;fillColor=#ffe6cc;strokeColor=#d79b00;" parent="1" vertex="1">
          <mxGeometry x="497.25" y="858" width="100" height="52" as="geometry" />
        </mxCell>
        <mxCell id="CLvzxZcf5yE5PqEASKck-28" style="edgeStyle=orthogonalEdgeStyle;rounded=0;orthogonalLoop=1;jettySize=auto;html=1;startArrow=diamondThin;startFill=1;endArrow=none;endFill=0;exitX=0.5;exitY=1;exitDx=0;exitDy=0;" parent="1" source="CLvzxZcf5yE5PqEASKck-5" target="CLvzxZcf5yE5PqEASKck-27" edge="1">
          <mxGeometry relative="1" as="geometry">
            <mxPoint x="689.9999999999998" y="803" as="sourcePoint" />
          </mxGeometry>
        </mxCell>
        <mxCell id="CLvzxZcf5yE5PqEASKck-29" value="1..n" style="edgeLabel;html=1;align=center;verticalAlign=middle;resizable=0;points=[];" parent="CLvzxZcf5yE5PqEASKck-28" connectable="0" vertex="1">
          <mxGeometry x="0.6839" y="1" relative="1" as="geometry">
            <mxPoint x="11" y="1" as="offset" />
          </mxGeometry>
        </mxCell>
        <mxCell id="dIHybOWJR_WHU6xol9Fc-9" value="1" style="edgeLabel;html=1;align=center;verticalAlign=middle;resizable=0;points=[];" parent="CLvzxZcf5yE5PqEASKck-28" vertex="1" connectable="0">
          <mxGeometry x="-0.8302" relative="1" as="geometry">
            <mxPoint x="-7" y="2" as="offset" />
          </mxGeometry>
        </mxCell>
        <mxCell id="CLvzxZcf5yE5PqEASKck-30" value="&lt;b&gt;External Services&lt;/b&gt;" style="shape=umlFrame;whiteSpace=wrap;html=1;width=120;height=30;fillColor=#E1D5E7;strokeColor=#9673a6;fillStyle=solid;labelBackgroundColor=none;" parent="1" vertex="1">
          <mxGeometry x="1370" y="627" width="560" height="423" as="geometry" />
        </mxCell>
        <mxCell id="CLvzxZcf5yE5PqEASKck-46" style="edgeStyle=orthogonalEdgeStyle;rounded=0;orthogonalLoop=1;jettySize=auto;html=1;endArrow=none;endFill=0;" parent="1" source="CLvzxZcf5yE5PqEASKck-80" target="CLvzxZcf5yE5PqEASKck-13" edge="1">
          <mxGeometry relative="1" as="geometry">
            <Array as="points">
              <mxPoint x="1265" y="798" />
              <mxPoint x="1265" y="798" />
            </Array>
          </mxGeometry>
        </mxCell>
        <mxCell id="CLvzxZcf5yE5PqEASKck-47" value="1" style="edgeLabel;html=1;align=center;verticalAlign=middle;resizable=0;points=[];" parent="CLvzxZcf5yE5PqEASKck-46" vertex="1" connectable="0">
          <mxGeometry x="-0.8102" relative="1" as="geometry">
            <mxPoint x="10" y="-6" as="offset" />
          </mxGeometry>
        </mxCell>
        <mxCell id="CLvzxZcf5yE5PqEASKck-103" value="1" style="edgeLabel;html=1;align=center;verticalAlign=middle;resizable=0;points=[];" parent="CLvzxZcf5yE5PqEASKck-46" vertex="1" connectable="0">
          <mxGeometry x="0.7302" y="1" relative="1" as="geometry">
            <mxPoint x="11" as="offset" />
          </mxGeometry>
        </mxCell>
        <mxCell id="CLvzxZcf5yE5PqEASKck-48" style="edgeStyle=orthogonalEdgeStyle;rounded=0;orthogonalLoop=1;jettySize=auto;html=1;endArrow=none;endFill=0;" parent="1" source="CLvzxZcf5yE5PqEASKck-79" edge="1">
          <mxGeometry relative="1" as="geometry">
            <Array as="points">
              <mxPoint x="1085" y="848" />
              <mxPoint x="1085" y="848" />
            </Array>
            <mxPoint x="1090" y="773" as="targetPoint" />
          </mxGeometry>
        </mxCell>
        <mxCell id="CLvzxZcf5yE5PqEASKck-49" value="1.. n" style="edgeLabel;html=1;align=center;verticalAlign=middle;resizable=0;points=[];" parent="CLvzxZcf5yE5PqEASKck-48" vertex="1" connectable="0">
          <mxGeometry x="-0.6394" y="-1" relative="1" as="geometry">
            <mxPoint x="14" as="offset" />
          </mxGeometry>
        </mxCell>
        <mxCell id="CLvzxZcf5yE5PqEASKck-102" value="1" style="edgeLabel;html=1;align=center;verticalAlign=middle;resizable=0;points=[];" parent="CLvzxZcf5yE5PqEASKck-48" vertex="1" connectable="0">
          <mxGeometry x="0.8286" y="1" relative="1" as="geometry">
            <mxPoint x="11" as="offset" />
          </mxGeometry>
        </mxCell>
        <mxCell id="CLvzxZcf5yE5PqEASKck-50" value="&lt;pre style=&quot;border-color: var(--border-color);&quot;&gt;&lt;code style=&quot;border-color: var(--border-color);&quot; class=&quot;!whitespace-pre hljs language-rust&quot;&gt;OCL 2:&lt;/code&gt;&lt;/pre&gt;&lt;pre&gt;&lt;code class=&quot;!whitespace-pre hljs language-rust&quot;&gt;context ShoppingBasket&lt;br&gt;inv items_from_same_store:&lt;br&gt;    &lt;span class=&quot;hljs-keyword&quot;&gt;self&lt;/span&gt;.items&lt;span class=&quot;hljs-punctuation&quot;&gt;-&amp;gt;&lt;/span&gt;&lt;span class=&quot;hljs-title function_ invoke__&quot;&gt;forAll&lt;/span&gt;(i | i.product.store = &lt;span class=&quot;hljs-keyword&quot;&gt;self&lt;/span&gt;.items&lt;span class=&quot;hljs-punctuation&quot;&gt;-&amp;gt;&lt;/span&gt;&lt;span class=&quot;hljs-title function_ invoke__&quot;&gt;first&lt;/span&gt;().product.store&lt;br&gt;&lt;/code&gt;)&lt;/pre&gt;" style="shape=note;whiteSpace=wrap;html=1;backgroundOutline=1;darkOpacity=0.05;align=left;fillColor=#fff2cc;strokeColor=#d6b656;" parent="1" vertex="1">
          <mxGeometry x="1350" y="268" width="571" height="100" as="geometry" />
        </mxCell>
        <mxCell id="CLvzxZcf5yE5PqEASKck-51" value="&lt;br&gt;&lt;pre&gt;&lt;code class=&quot;!whitespace-pre hljs language-rust&quot;&gt;OCL 3:&lt;br/&gt;context ShoppingCart&lt;br&gt;inv max_one_basket_per_store:&lt;br&gt;    &lt;span class=&quot;hljs-keyword&quot;&gt;self&lt;/span&gt;.baskets&lt;span class=&quot;hljs-punctuation&quot;&gt;-&amp;gt;&lt;/span&gt;&lt;span class=&quot;hljs-title function_ invoke__&quot;&gt;forAll&lt;/span&gt;(b1, b2 | b1.store &amp;lt;&amp;gt; b2.store or b1 = b2)&lt;/code&gt;&lt;/pre&gt;&lt;br&gt;" style="shape=note;whiteSpace=wrap;html=1;backgroundOutline=1;darkOpacity=0.05;align=left;fillColor=#fff2cc;strokeColor=#d6b656;" parent="1" vertex="1">
          <mxGeometry x="1350" y="380" width="481" height="100" as="geometry" />
        </mxCell>
        <mxCell id="CLvzxZcf5yE5PqEASKck-52" value="StorePermission" style="swimlane;fontStyle=1;align=center;verticalAlign=middle;childLayout=stackLayout;horizontal=1;startSize=29;horizontalStack=0;resizeParent=1;resizeParentMax=0;resizeLast=0;collapsible=0;marginBottom=0;html=1;whiteSpace=wrap;fillColor=#ffe6cc;strokeColor=#d79b00;" parent="1" vertex="1">
          <mxGeometry x="1195" y="467" width="109" height="55" as="geometry" />
        </mxCell>
        <mxCell id="CLvzxZcf5yE5PqEASKck-53" value="&lt;b&gt;Manager&lt;/b&gt;" style="shape=umlFrame;whiteSpace=wrap;html=1;pointerEvents=0;width=70;height=20;" parent="1" vertex="1">
          <mxGeometry x="800" y="458" width="520" height="220" as="geometry" />
        </mxCell>
        <mxCell id="CLvzxZcf5yE5PqEASKck-54" value="StoreManager" style="swimlane;fontStyle=1;align=center;verticalAlign=middle;childLayout=stackLayout;horizontal=1;startSize=29;horizontalStack=0;resizeParent=1;resizeParentMax=0;resizeLast=0;collapsible=0;marginBottom=0;html=1;whiteSpace=wrap;fillColor=#ffe6cc;strokeColor=#d79b00;" parent="1" vertex="1">
          <mxGeometry x="1015" y="571" width="149.5" height="55" as="geometry" />
        </mxCell>
        <mxCell id="CLvzxZcf5yE5PqEASKck-55" style="edgeStyle=orthogonalEdgeStyle;rounded=0;orthogonalLoop=1;jettySize=auto;html=1;endArrow=diamondThin;endFill=1;" parent="1" source="CLvzxZcf5yE5PqEASKck-54" target="CLvzxZcf5yE5PqEASKck-54" edge="1">
          <mxGeometry relative="1" as="geometry">
            <Array as="points">
              <mxPoint x="1125" y="518" />
              <mxPoint x="1179" y="518" />
              <mxPoint x="1179" y="585" />
            </Array>
          </mxGeometry>
        </mxCell>
        <mxCell id="CLvzxZcf5yE5PqEASKck-56" value="0...n" style="edgeLabel;html=1;align=center;verticalAlign=middle;resizable=0;points=[];" parent="CLvzxZcf5yE5PqEASKck-55" vertex="1" connectable="0">
          <mxGeometry x="-0.0391" y="-2" relative="1" as="geometry">
            <mxPoint x="-21" y="38" as="offset" />
          </mxGeometry>
        </mxCell>
        <mxCell id="CLvzxZcf5yE5PqEASKck-57" value="ParentManager" style="edgeLabel;html=1;align=left;verticalAlign=middle;resizable=0;points=[];" parent="CLvzxZcf5yE5PqEASKck-55" vertex="1" connectable="0">
          <mxGeometry x="-0.7228" relative="1" as="geometry">
            <mxPoint y="-14" as="offset" />
          </mxGeometry>
        </mxCell>
        <mxCell id="CLvzxZcf5yE5PqEASKck-58" style="edgeStyle=orthogonalEdgeStyle;rounded=0;orthogonalLoop=1;jettySize=auto;html=1;endArrow=none;endFill=0;startArrow=diamondThin;startFill=0;" parent="1" source="CLvzxZcf5yE5PqEASKck-54" target="CLvzxZcf5yE5PqEASKck-52" edge="1">
          <mxGeometry relative="1" as="geometry">
            <mxPoint x="1150.9999999999998" y="611.9999999999998" as="sourcePoint" />
          </mxGeometry>
        </mxCell>
        <mxCell id="CLvzxZcf5yE5PqEASKck-59" value="0...n" style="edgeLabel;html=1;align=center;verticalAlign=middle;resizable=0;points=[];" parent="CLvzxZcf5yE5PqEASKck-58" vertex="1" connectable="0">
          <mxGeometry x="-0.7905" y="-1" relative="1" as="geometry">
            <mxPoint x="88" y="-49" as="offset" />
          </mxGeometry>
        </mxCell>
        <mxCell id="CLvzxZcf5yE5PqEASKck-62" value="Constraint: tree structure, avoid illegal connections, enforce existence of at least 1 owner for an operating store" style="shape=note2;boundedLbl=1;whiteSpace=wrap;html=1;size=25;verticalAlign=top;align=left;fillColor=#fff2cc;strokeColor=#d6b656;" parent="1" vertex="1">
          <mxGeometry x="840" y="490" width="120" height="130" as="geometry" />
        </mxCell>
        <mxCell id="CLvzxZcf5yE5PqEASKck-63" style="edgeStyle=orthogonalEdgeStyle;rounded=0;orthogonalLoop=1;jettySize=auto;html=1;endArrow=none;endFill=0;dashed=1;" parent="1" source="CLvzxZcf5yE5PqEASKck-69" target="CLvzxZcf5yE5PqEASKck-54" edge="1">
          <mxGeometry relative="1" as="geometry">
            <mxPoint x="1065" y="568" as="targetPoint" />
            <Array as="points">
              <mxPoint x="1055" y="380" />
            </Array>
          </mxGeometry>
        </mxCell>
        <mxCell id="CLvzxZcf5yE5PqEASKck-64" value="Store owner" style="edgeLabel;html=1;align=left;verticalAlign=middle;resizable=0;points=[];" parent="CLvzxZcf5yE5PqEASKck-63" vertex="1" connectable="0">
          <mxGeometry x="-0.975" y="1" relative="1" as="geometry">
            <mxPoint x="1" y="-9" as="offset" />
          </mxGeometry>
        </mxCell>
        <mxCell id="dIHybOWJR_WHU6xol9Fc-1" value="0 .. 1" style="edgeLabel;html=1;align=center;verticalAlign=middle;resizable=0;points=[];" parent="CLvzxZcf5yE5PqEASKck-63" vertex="1" connectable="0">
          <mxGeometry x="0.9659" y="1" relative="1" as="geometry">
            <mxPoint x="14" as="offset" />
          </mxGeometry>
        </mxCell>
        <mxCell id="CLvzxZcf5yE5PqEASKck-66" style="edgeStyle=orthogonalEdgeStyle;rounded=0;orthogonalLoop=1;jettySize=auto;html=1;endArrow=none;endFill=0;dashed=1;" parent="1" source="CLvzxZcf5yE5PqEASKck-69" edge="1">
          <mxGeometry relative="1" as="geometry">
            <mxPoint x="1025" y="571" as="targetPoint" />
            <Array as="points">
              <mxPoint x="1025" y="400" />
            </Array>
          </mxGeometry>
        </mxCell>
        <mxCell id="CLvzxZcf5yE5PqEASKck-67" value="Store founder" style="edgeLabel;html=1;align=left;verticalAlign=middle;resizable=0;points=[];" parent="CLvzxZcf5yE5PqEASKck-66" vertex="1" connectable="0">
          <mxGeometry x="-0.9466" relative="1" as="geometry">
            <mxPoint x="-6" y="-10" as="offset" />
          </mxGeometry>
        </mxCell>
        <mxCell id="dIHybOWJR_WHU6xol9Fc-3" value="0 ..1" style="edgeLabel;html=1;align=center;verticalAlign=middle;resizable=0;points=[];" parent="CLvzxZcf5yE5PqEASKck-66" vertex="1" connectable="0">
          <mxGeometry x="0.9725" relative="1" as="geometry">
            <mxPoint x="15" y="-4" as="offset" />
          </mxGeometry>
        </mxCell>
        <mxCell id="CLvzxZcf5yE5PqEASKck-69" value="Member" style="swimlane;fontStyle=1;align=center;verticalAlign=middle;childLayout=stackLayout;horizontal=1;startSize=29;horizontalStack=0;resizeParent=1;resizeParentMax=0;resizeLast=0;collapsible=0;marginBottom=0;html=1;fillColor=#ffe6cc;strokeColor=#d79b00;" parent="1" vertex="1">
          <mxGeometry x="557" y="350" width="120" height="60" as="geometry" />
        </mxCell>
        <mxCell id="CLvzxZcf5yE5PqEASKck-70" style="edgeStyle=orthogonalEdgeStyle;rounded=0;orthogonalLoop=1;jettySize=auto;html=1;endArrow=none;endFill=0;startArrow=none;startFill=0;dashed=1;" parent="1" source="CLvzxZcf5yE5PqEASKck-69" target="CLvzxZcf5yE5PqEASKck-54" edge="1">
          <mxGeometry relative="1" as="geometry">
            <Array as="points">
              <mxPoint x="1085" y="360" />
            </Array>
            <mxPoint x="1080" y="508" as="targetPoint" />
          </mxGeometry>
        </mxCell>
        <mxCell id="CLvzxZcf5yE5PqEASKck-72" value="Store manager" style="edgeLabel;html=1;align=left;verticalAlign=middle;resizable=0;points=[];" parent="CLvzxZcf5yE5PqEASKck-70" vertex="1" connectable="0">
          <mxGeometry x="-0.9897" relative="1" as="geometry">
            <mxPoint x="5" y="-11" as="offset" />
          </mxGeometry>
        </mxCell>
        <mxCell id="dIHybOWJR_WHU6xol9Fc-2" value="0 .. 1" style="edgeLabel;html=1;align=center;verticalAlign=middle;resizable=0;points=[];" parent="CLvzxZcf5yE5PqEASKck-70" vertex="1" connectable="0">
          <mxGeometry x="0.9696" relative="1" as="geometry">
            <mxPoint x="15" as="offset" />
          </mxGeometry>
        </mxCell>
        <mxCell id="CLvzxZcf5yE5PqEASKck-73" style="edgeStyle=orthogonalEdgeStyle;rounded=0;orthogonalLoop=1;jettySize=auto;html=1;endArrow=none;endFill=0;" parent="1" source="CLvzxZcf5yE5PqEASKck-74" target="CLvzxZcf5yE5PqEASKck-69" edge="1">
          <mxGeometry relative="1" as="geometry">
            <Array as="points">
              <mxPoint x="590" y="308" />
            </Array>
          </mxGeometry>
        </mxCell>
        <mxCell id="CLvzxZcf5yE5PqEASKck-74" value="Role" style="html=1;whiteSpace=wrap;" parent="1" vertex="1">
          <mxGeometry x="447" y="288" width="110" height="50" as="geometry" />
        </mxCell>
        <mxCell id="CLvzxZcf5yE5PqEASKck-75" value="&lt;pre&gt;&lt;code class=&quot;!whitespace-pre hljs language-rust&quot;&gt;OCL 1:&lt;br&gt;inv at_least_one_admin:&lt;br&gt;    self.members&lt;span class=&quot;hljs-punctuation&quot;&gt;-&amp;gt;&lt;/span&gt;&lt;span class=&quot;hljs-title function_ invoke__&quot;&gt;exists&lt;/span&gt;(m | m.Role = Administrator)&lt;/code&gt;&lt;/pre&gt;" style="shape=note;whiteSpace=wrap;html=1;backgroundOutline=1;darkOpacity=0.05;align=left;fillColor=#fff2cc;strokeColor=#d6b656;" parent="1" vertex="1">
          <mxGeometry x="1350" y="180" width="390" height="80" as="geometry" />
        </mxCell>
        <mxCell id="CLvzxZcf5yE5PqEASKck-76" value="ShoppingCart" style="swimlane;fontStyle=1;align=center;verticalAlign=middle;childLayout=stackLayout;horizontal=1;startSize=29;horizontalStack=0;resizeParent=1;resizeParentMax=0;resizeLast=0;collapsible=0;marginBottom=0;html=1;fillColor=#ffe6cc;strokeColor=#d79b00;" parent="1" vertex="1">
          <mxGeometry x="150" y="490" width="210" height="55" as="geometry" />
        </mxCell>
        <mxCell id="CLvzxZcf5yE5PqEASKck-77" style="edgeStyle=orthogonalEdgeStyle;rounded=0;orthogonalLoop=1;jettySize=auto;html=1;endArrow=none;endFill=0;startArrow=diamondThin;startFill=1;dashed=1;" parent="1" source="CLvzxZcf5yE5PqEASKck-69" target="CLvzxZcf5yE5PqEASKck-76" edge="1">
          <mxGeometry relative="1" as="geometry">
            <Array as="points">
              <mxPoint x="358" y="380" />
            </Array>
            <mxPoint x="275" y="528" as="targetPoint" />
          </mxGeometry>
        </mxCell>
        <mxCell id="CLvzxZcf5yE5PqEASKck-78" value="1 .. 1" style="edgeLabel;html=1;align=center;verticalAlign=middle;resizable=0;points=[];" parent="CLvzxZcf5yE5PqEASKck-77" vertex="1" connectable="0">
          <mxGeometry x="0.9533" y="1" relative="1" as="geometry">
            <mxPoint x="16" as="offset" />
          </mxGeometry>
        </mxCell>
        <mxCell id="dIHybOWJR_WHU6xol9Fc-22" value="1 .. 1" style="edgeLabel;html=1;align=center;verticalAlign=middle;resizable=0;points=[];" parent="CLvzxZcf5yE5PqEASKck-77" vertex="1" connectable="0">
          <mxGeometry x="-0.8849" relative="1" as="geometry">
            <mxPoint y="-10" as="offset" />
          </mxGeometry>
        </mxCell>
        <mxCell id="CLvzxZcf5yE5PqEASKck-79" value="PurchaseRule" style="swimlane;fontStyle=1;align=center;verticalAlign=middle;childLayout=stackLayout;horizontal=1;startSize=29;horizontalStack=0;resizeParent=1;resizeParentMax=0;resizeLast=0;collapsible=0;marginBottom=0;html=1;fillColor=#ffe6cc;strokeColor=#d79b00;" parent="1" vertex="1">
          <mxGeometry x="1030.25" y="838" width="119" height="55" as="geometry" />
        </mxCell>
        <mxCell id="CLvzxZcf5yE5PqEASKck-80" value="DiscountType" style="swimlane;fontStyle=1;align=center;verticalAlign=middle;childLayout=stackLayout;horizontal=1;startSize=29;horizontalStack=0;resizeParent=1;resizeParentMax=0;resizeLast=0;collapsible=0;marginBottom=0;html=1;fillColor=#ffe6cc;strokeColor=#d79b00;" parent="1" vertex="1">
          <mxGeometry x="1205" y="839" width="105" height="54" as="geometry" />
        </mxCell>
        <mxCell id="CLvzxZcf5yE5PqEASKck-105" value="Role: Member, Administrator" style="shape=note;whiteSpace=wrap;html=1;backgroundOutline=1;darkOpacity=0.05;" parent="1" vertex="1">
          <mxGeometry x="130" y="280" width="250" height="50" as="geometry" />
        </mxCell>
        <mxCell id="CLvzxZcf5yE5PqEASKck-107" value="&lt;pre&gt;&lt;code class=&quot;!whitespace-pre hljs language-css&quot;&gt;OCL 4:&lt;br/&gt;context ShopManager&lt;br&gt;inv distinct_members:&lt;br&gt;    self.allInstances()-&amp;gt;&lt;span class=&quot;hljs-built_in&quot;&gt;forAll&lt;/span&gt;(s1, s2 | s1.member &amp;lt;&amp;gt; s2.member or s1 = s2)&lt;/code&gt;&lt;/pre&gt;" style="shape=note;whiteSpace=wrap;html=1;backgroundOutline=1;darkOpacity=0.05;align=left;fillColor=#fff2cc;strokeColor=#d6b656;" parent="1" vertex="1">
          <mxGeometry x="1350" y="488" width="550" height="100" as="geometry" />
        </mxCell>
        <mxCell id="CLvzxZcf5yE5PqEASKck-113" style="edgeStyle=orthogonalEdgeStyle;rounded=0;orthogonalLoop=1;jettySize=auto;html=1;endArrow=none;endFill=0;" parent="1" source="CLvzxZcf5yE5PqEASKck-108" target="CLvzxZcf5yE5PqEASKck-112" edge="1">
          <mxGeometry relative="1" as="geometry">
            <Array as="points">
              <mxPoint x="740" y="200" />
              <mxPoint x="740" y="200" />
            </Array>
          </mxGeometry>
        </mxCell>
        <mxCell id="CLvzxZcf5yE5PqEASKck-108" value="Market" style="swimlane;fontStyle=1;align=center;verticalAlign=middle;childLayout=stackLayout;horizontal=1;startSize=40;horizontalStack=0;resizeParent=1;resizeParentMax=0;resizeLast=0;collapsible=0;marginBottom=0;html=1;fillColor=#d5e8d4;strokeColor=#82b366;fontSize=16;" parent="1" vertex="1">
          <mxGeometry x="650" y="90" width="180" height="80" as="geometry" />
        </mxCell>
        <mxCell id="Ha9zelG3oU2tV3AhwNEj-2" value="" style="endArrow=open;html=1;rounded=0;dashed=1;exitX=1;exitY=0.25;exitDx=0;exitDy=0;entryX=0.25;entryY=0;entryDx=0;entryDy=0;edgeStyle=orthogonalEdgeStyle;endFill=0;" parent="1" source="CLvzxZcf5yE5PqEASKck-19" target="CLvzxZcf5yE5PqEASKck-6" edge="1">
          <mxGeometry relative="1" as="geometry">
            <mxPoint x="540" y="730" as="sourcePoint" />
            <mxPoint x="700" y="730" as="targetPoint" />
          </mxGeometry>
        </mxCell>
        <mxCell id="Ha9zelG3oU2tV3AhwNEj-3" value="1" style="resizable=0;html=1;whiteSpace=wrap;align=right;verticalAlign=bottom;" parent="Ha9zelG3oU2tV3AhwNEj-2" connectable="0" vertex="1">
          <mxGeometry x="1" relative="1" as="geometry">
            <mxPoint x="-5" as="offset" />
          </mxGeometry>
        </mxCell>
        <mxCell id="Ha9zelG3oU2tV3AhwNEj-4" value="" style="resizable=0;html=1;whiteSpace=wrap;align=right;verticalAlign=bottom;" parent="1" connectable="0" vertex="1">
          <mxGeometry x="1070" y="727.7999981751823" as="geometry">
            <mxPoint x="-682" y="-64" as="offset" />
          </mxGeometry>
        </mxCell>
        <mxCell id="ggJYoar1Brt_5jLOgCQw-3" value="Delivery&lt;br&gt;Adaptee" style="endArrow=block;endFill=1;html=1;align=left;verticalAlign=top;rounded=0;exitX=1;exitY=0.5;exitDx=0;exitDy=0;entryX=0;entryY=0.5;entryDx=0;entryDy=0;" parent="1" source="CLvzxZcf5yE5PqEASKck-45" target="ggJYoar1Brt_5jLOgCQw-1" edge="1">
          <mxGeometry x="0.1182" y="-5" relative="1" as="geometry">
            <mxPoint x="2240" y="684" as="sourcePoint" />
            <mxPoint x="2370" y="684" as="targetPoint" />
            <mxPoint as="offset" />
          </mxGeometry>
        </mxCell>
        <mxCell id="ggJYoar1Brt_5jLOgCQw-13" value="" style="group" parent="1" vertex="1" connectable="0">
          <mxGeometry x="1480" y="652" width="390" height="171" as="geometry" />
        </mxCell>
        <mxCell id="CLvzxZcf5yE5PqEASKck-45" value="RealDeliveryAdapter" style="swimlane;fontStyle=1;align=center;verticalAlign=top;childLayout=stackLayout;horizontal=1;startSize=26;horizontalStack=0;resizeParent=1;resizeParentMax=0;resizeLast=0;collapsible=1;marginBottom=0;fillColor=#e1d5e7;strokeColor=#9673a6;" parent="ggJYoar1Brt_5jLOgCQw-13" vertex="1">
          <mxGeometry x="230" width="160" height="50" as="geometry" />
        </mxCell>
        <mxCell id="CLvzxZcf5yE5PqEASKck-85" value="«interface»&lt;br&gt;&lt;b&gt;IDelivery&lt;/b&gt;" style="html=1;whiteSpace=wrap;" parent="ggJYoar1Brt_5jLOgCQw-13" vertex="1">
          <mxGeometry y="66" width="110" height="50" as="geometry" />
        </mxCell>
        <mxCell id="CLvzxZcf5yE5PqEASKck-100" style="rounded=0;orthogonalLoop=1;jettySize=auto;html=1;endArrow=open;endFill=0;startArrow=diamondThin;startFill=0;entryX=0.5;entryY=1;entryDx=0;entryDy=0;exitX=0.5;exitY=0;exitDx=0;exitDy=0;" parent="ggJYoar1Brt_5jLOgCQw-13" source="CLvzxZcf5yE5PqEASKck-92" target="CLvzxZcf5yE5PqEASKck-45" edge="1">
          <mxGeometry relative="1" as="geometry">
            <mxPoint x="310" y="58" as="targetPoint" />
          </mxGeometry>
        </mxCell>
        <mxCell id="CLvzxZcf5yE5PqEASKck-92" value="DeliveryProxy" style="swimlane;fontStyle=1;align=center;verticalAlign=top;childLayout=stackLayout;horizontal=1;startSize=26;horizontalStack=0;resizeParent=1;resizeParentMax=0;resizeLast=0;collapsible=1;marginBottom=0;fillColor=#e1d5e7;strokeColor=#9673a6;" parent="ggJYoar1Brt_5jLOgCQw-13" vertex="1">
          <mxGeometry x="230" y="121" width="160" height="50" as="geometry" />
        </mxCell>
        <mxCell id="ggJYoar1Brt_5jLOgCQw-6" value="" style="endArrow=block;dashed=1;endFill=0;endSize=12;html=1;rounded=0;entryX=1;entryY=0.5;entryDx=0;entryDy=0;exitX=0;exitY=0.5;exitDx=0;exitDy=0;" parent="ggJYoar1Brt_5jLOgCQw-13" source="CLvzxZcf5yE5PqEASKck-45" target="CLvzxZcf5yE5PqEASKck-85" edge="1">
          <mxGeometry width="160" relative="1" as="geometry">
            <mxPoint x="300" y="38" as="sourcePoint" />
            <mxPoint x="460" y="38" as="targetPoint" />
            <Array as="points">
              <mxPoint x="190" y="25" />
              <mxPoint x="190" y="68" />
              <mxPoint x="190" y="88" />
            </Array>
          </mxGeometry>
        </mxCell>
        <mxCell id="ggJYoar1Brt_5jLOgCQw-7" value="" style="endArrow=none;dashed=1;endFill=0;endSize=12;html=1;rounded=0;edgeStyle=orthogonalEdgeStyle;exitX=0;exitY=0.5;exitDx=0;exitDy=0;" parent="ggJYoar1Brt_5jLOgCQw-13" source="CLvzxZcf5yE5PqEASKck-92" edge="1">
          <mxGeometry width="160" relative="1" as="geometry">
            <mxPoint x="230" y="108" as="sourcePoint" />
            <mxPoint x="190" y="78" as="targetPoint" />
          </mxGeometry>
        </mxCell>
        <mxCell id="ggJYoar1Brt_5jLOgCQw-14" value="" style="group" parent="1" vertex="1" connectable="0">
          <mxGeometry x="1490" y="860" width="390" height="171" as="geometry" />
        </mxCell>
        <mxCell id="ggJYoar1Brt_5jLOgCQw-15" value="RealPaymentAdapter" style="swimlane;fontStyle=1;align=center;verticalAlign=top;childLayout=stackLayout;horizontal=1;startSize=26;horizontalStack=0;resizeParent=1;resizeParentMax=0;resizeLast=0;collapsible=1;marginBottom=0;fillColor=#e1d5e7;strokeColor=#9673a6;" parent="ggJYoar1Brt_5jLOgCQw-14" vertex="1">
          <mxGeometry x="230" width="160" height="50" as="geometry" />
        </mxCell>
        <mxCell id="ggJYoar1Brt_5jLOgCQw-16" value="«interface»&lt;br&gt;&lt;b&gt;IPayment&lt;/b&gt;" style="html=1;whiteSpace=wrap;" parent="ggJYoar1Brt_5jLOgCQw-14" vertex="1">
          <mxGeometry y="66" width="110" height="50" as="geometry" />
        </mxCell>
        <mxCell id="ggJYoar1Brt_5jLOgCQw-17" style="rounded=0;orthogonalLoop=1;jettySize=auto;html=1;endArrow=open;endFill=0;startArrow=diamondThin;startFill=0;entryX=0.5;entryY=1;entryDx=0;entryDy=0;exitX=0.5;exitY=0;exitDx=0;exitDy=0;" parent="ggJYoar1Brt_5jLOgCQw-14" source="ggJYoar1Brt_5jLOgCQw-18" target="ggJYoar1Brt_5jLOgCQw-15" edge="1">
          <mxGeometry relative="1" as="geometry">
            <mxPoint x="310" y="58" as="targetPoint" />
          </mxGeometry>
        </mxCell>
        <mxCell id="ggJYoar1Brt_5jLOgCQw-18" value="PaymentProxy" style="swimlane;fontStyle=1;align=center;verticalAlign=top;childLayout=stackLayout;horizontal=1;startSize=26;horizontalStack=0;resizeParent=1;resizeParentMax=0;resizeLast=0;collapsible=1;marginBottom=0;fillColor=#e1d5e7;strokeColor=#9673a6;" parent="ggJYoar1Brt_5jLOgCQw-14" vertex="1">
          <mxGeometry x="230" y="121" width="160" height="50" as="geometry" />
        </mxCell>
        <mxCell id="ggJYoar1Brt_5jLOgCQw-19" value="" style="endArrow=block;dashed=1;endFill=0;endSize=12;html=1;rounded=0;entryX=1;entryY=0.5;entryDx=0;entryDy=0;exitX=0;exitY=0.5;exitDx=0;exitDy=0;" parent="ggJYoar1Brt_5jLOgCQw-14" source="ggJYoar1Brt_5jLOgCQw-15" target="ggJYoar1Brt_5jLOgCQw-16" edge="1">
          <mxGeometry width="160" relative="1" as="geometry">
            <mxPoint x="300" y="38" as="sourcePoint" />
            <mxPoint x="460" y="38" as="targetPoint" />
            <Array as="points">
              <mxPoint x="190" y="25" />
              <mxPoint x="190" y="68" />
              <mxPoint x="190" y="88" />
            </Array>
          </mxGeometry>
        </mxCell>
        <mxCell id="ggJYoar1Brt_5jLOgCQw-20" value="" style="endArrow=none;dashed=1;endFill=0;endSize=12;html=1;rounded=0;edgeStyle=orthogonalEdgeStyle;exitX=0;exitY=0.5;exitDx=0;exitDy=0;" parent="ggJYoar1Brt_5jLOgCQw-14" source="ggJYoar1Brt_5jLOgCQw-18" edge="1">
          <mxGeometry width="160" relative="1" as="geometry">
            <mxPoint x="230" y="108" as="sourcePoint" />
            <mxPoint x="190" y="78" as="targetPoint" />
          </mxGeometry>
        </mxCell>
        <mxCell id="ggJYoar1Brt_5jLOgCQw-1" value="External Delivery&#xa;System" style="strokeColor=#dddddd;shadow=1;strokeWidth=1;rounded=1;absoluteArcSize=1;arcSize=2;" parent="1" vertex="1">
          <mxGeometry x="1995" y="652" width="130" height="44" as="geometry" />
        </mxCell>
        <mxCell id="ggJYoar1Brt_5jLOgCQw-30" value="External Payment&#xa;System" style="strokeColor=#dddddd;shadow=1;strokeWidth=1;rounded=1;absoluteArcSize=1;arcSize=2;" parent="1" vertex="1">
          <mxGeometry x="1995" y="866" width="130" height="44" as="geometry" />
        </mxCell>
        <mxCell id="ggJYoar1Brt_5jLOgCQw-31" value="Paymen&lt;br&gt;tAdaptee" style="endArrow=block;endFill=1;html=1;align=left;verticalAlign=top;rounded=0;edgeStyle=elbowEdgeStyle;elbow=vertical;" parent="1" source="ggJYoar1Brt_5jLOgCQw-15" target="ggJYoar1Brt_5jLOgCQw-30" edge="1">
          <mxGeometry x="0.2174" y="-11" relative="1" as="geometry">
            <mxPoint x="1880" y="881.41" as="sourcePoint" />
            <mxPoint x="2060" y="881.41" as="targetPoint" />
            <mxPoint x="-1" as="offset" />
          </mxGeometry>
        </mxCell>
        <mxCell id="pW84G5tZ_yXUKDiwQYsp-1" value="0 .. n" style="edgeLabel;html=1;align=center;verticalAlign=middle;resizable=0;points=[];" parent="1" vertex="1" connectable="0">
          <mxGeometry x="315" y="640" as="geometry">
            <mxPoint x="61" y="7" as="offset" />
          </mxGeometry>
        </mxCell>
      </root>
    </mxGraphModel>
  </diagram>
</mxfile>
